<!--?xml version="1.0" encoding="utf-8"?-->
<!-- Generator: Adobe Illustrator 18.1.1, SVG Export Plug-In . SVG Version: 6.00 Build 0)  -->

<svg version="1.1" id="_x32_" xmlns="http://www.w3.org/2000/svg" xmlns:xlink="http://www.w3.org/1999/xlink" x="0px" y="0px" viewBox="0 0 512 512" style="width: 32px; height: 32px; opacity: 1;" xml:space="preserve">
<style type="text/css">
	.st0{fill:#4B4B4B;}
</style>
<g>
	<path class="st0" d="M436.849,74.795C390.615,28.54,326.547-0.018,256.004,0.003C185.561-0.003,121.515,28.425,75.325,74.636
		C28.933,120.999-0.014,185.14,0,255.986c-0.007,70.652,28.673,134.748,74.986,181.032c46.277,46.306,110.373,74.986,181.025,74.979
		c21.216,0,41.74-2.741,61.341-7.587l4.378-1.082l0.173-0.187c0,0-0.007,0.014,0,0.014L503.159,321.9
		c-0.022,0-0.036-0.008-0.058-0.008l0.245-0.23l1.082-4.364c4.824-19.572,7.58-40.096,7.572-61.312
		C512.015,185.24,483.197,121.129,436.849,74.795z M477.096,303.993c-1.017,0.209-2.351,0.425-3.974,0.563
		c-2.943,0.28-6.729,0.374-11.056,0.288l-0.252-0.008h0.144c-13.24-0.1-32.322-1.918-53.842,1.544l0.029-0.007
		c-21.678,3.411-45.902,13.182-66.981,34.327l-0.188,0.18l-0.035,0.044l-0.145,0.144l-0.029,0.029
		c-16.039,16.024-25.738,33.909-30.793,51.187c-7.572,25.825-5.546,49.385-5.214,65.712l0.008,0.072
		c0.26,8.077,0.051,14.798-0.613,18.21c-0.061,0.346-0.122,0.533-0.188,0.829c-15.534,3.382-31.514,5.351-47.964,5.351
		c-62.582,0-119.106-25.32-160.133-66.325c-41.012-41.026-66.324-97.558-66.339-160.147C29.546,193.26,55.067,136.692,96.21,95.521
		c40.89-40.868,97.356-65.979,159.794-65.986c62.503,0.007,118.998,25.219,159.96,66.152
		c41.071,41.099,66.491,97.644,66.506,160.299C482.462,272.442,480.493,288.452,477.096,303.993z" style="fill: rgb(75, 75, 75);"></path>
	<path class="st0" d="M185.817,230.486l-15.224,2.993c-0.8,0.165-1.241,0.8-1.082,1.615l11.326,57.628l-0.66,0.138l-43.659-51.275
		c-0.72-0.837-1.601-1.088-2.545-0.902l-16.165,3.18c-0.8,0.159-1.24,0.793-1.067,1.608l17.47,88.854
		c0.155,0.815,0.8,1.255,1.601,1.096l15.223-2.992c0.801-0.166,1.241-0.808,1.086-1.623l-11.311-57.49l0.674-0.13l43.752,51.116
		c0.721,0.837,1.478,1.104,2.56,0.902l16.024-3.159c0.8-0.159,1.241-0.801,1.067-1.615l-17.466-88.861
		C187.263,230.752,186.618,230.327,185.817,230.486z" style="fill: rgb(75, 75, 75);"></path>
	<path class="st0" d="M279.387,289.412l-39.465,7.76c-0.534,0.115-0.862-0.101-0.956-0.642l-3.74-18.988
		c-0.111-0.534,0.109-0.851,0.642-0.966l32.867-6.462c0.8-0.159,1.24-0.793,1.086-1.601l-2.813-14.272
		c-0.158-0.8-0.804-1.24-1.605-1.089l-32.862,6.469c-0.534,0.101-0.866-0.123-0.974-0.657l-3.57-18.173
		c-0.108-0.541,0.112-0.865,0.645-0.966l39.466-7.759c0.8-0.159,1.24-0.8,1.067-1.608l-2.827-14.402
		c-0.159-0.815-0.8-1.248-1.605-1.089l-58.706,11.546c-0.819,0.159-1.244,0.8-1.086,1.615l17.47,88.862
		c0.174,0.807,0.8,1.24,1.619,1.081l58.706-11.545c0.804-0.159,1.244-0.801,1.071-1.608l-2.831-14.409
		C280.833,289.7,280.188,289.253,279.387,289.412z" style="fill: rgb(75, 75, 75);"></path>
	<path class="st0" d="M385.808,191.161l-17.235,3.39c-0.942,0.18-1.4,0.699-1.353,1.673l-1.349,59.965l-0.284,0.05l-27.444-54.296
		c-0.44-0.771-1.085-1.197-1.885-1.038l-11.719,2.3c-0.927,0.188-1.367,0.823-1.478,1.702l-4.32,60.548l-0.267,0.058l-24.509-54.894
		c-0.281-0.794-0.927-1.212-1.868-1.024l-17.376,3.404c-0.942,0.188-1.1,0.779-0.8,1.565l41.16,84.196
		c0.44,0.757,1.082,1.197,1.886,1.038l13.464-2.653c0.941-0.181,1.381-0.83,1.489-1.688l4.824-60.101l0.267-0.051l27.083,53.82
		c0.425,0.758,1.071,1.197,2.012,1.009l13.464-2.653c0.942-0.174,1.507-0.851,1.493-1.695l6.079-93.491
		C387.11,191.45,386.75,190.973,385.808,191.161z" style="fill: rgb(75, 75, 75);"></path>
</g>
</svg>
